<?xml version="1.0" standalone="no"?>
<!DOCTYPE svg PUBLIC "-//W3C//DTD SVG 1.1//EN" "http://www.w3.org/Graphics/SVG/1.1/DTD/svg11.dtd">
<svg xmlns="http://www.w3.org/2000/svg" id="Layer_1" data-name="Layer 1" viewBox="0 0 384 384" width="384" height="384"><defs><style>.cls-1,.cls-2,.cls-3{fill:#e04420;}.cls-2{opacity:0.6;}.cls-3{opacity:0.3;}</style></defs><title>Selected Atom X logo</title><path class="cls-1" d="M90.94,181.21,69.59,233.79H82.22l3.67-9H108.7l3.67,9H125l-21.35-52.58ZM89.49,216l7.81-19.13L105.1,216Z"/><path class="cls-1" d="M143.79,225.3c-2.14,0-3.75-1.84-3.75-4.44V203.25h8.57v-9H140V183.36H129.25v10.86h-5.43v9h5.43v19.37c0,7.11,4.9,12.09,11.94,12.09a14.36,14.36,0,0,0,9-3.45L147.54,224A5.51,5.51,0,0,1,143.79,225.3Z"/><path class="cls-1" d="M172.87,193.3c-11.86,0-21.58,9.27-21.58,20.67s9.72,20.74,21.58,20.74,21.59-9.34,21.59-20.74S184.74,193.3,172.87,193.3Zm0,32A11.3,11.3,0,1,1,183.74,214,11.16,11.16,0,0,1,172.87,225.3Z"/><path class="cls-1" d="M245,193.3c-5.9,0-10.64,2.61-13,6.82a14.13,14.13,0,0,0-12.33-6.82c-4.89,0-8.87,2.38-10.79,6.13v-5.21H197.71v39.49h11.17v-23.8c0-4.21,3.14-7.19,7.66-7.19,4.13,0,7,3.21,7,7.8v23.19h10.79v-23.8c0-4.21,3.14-7.19,7.65-7.19,4.06,0,7,3.21,7,7.8v23.19h10.71v-25.1C259.62,199.66,253.27,193.3,245,193.3Z"/><path class="cls-2" d="M304.38,167.46a37.36,37.36,0,0,0-32.45.38l4.8,6.31a29.59,29.59,0,0,1,23.08-.23Z"/><path class="cls-3" d="M288.54,157a43.14,43.14,0,0,1,19.82,4.78l4.52-6.38a51.26,51.26,0,0,0-49.89.67l4.75,6.23A42.83,42.83,0,0,1,288.54,157Z"/><path class="cls-1" d="M280.87,179.16l5,6.77,2.76,3.77,2.71-3.72,4.91-6.71a24.52,24.52,0,0,0-7.85-1.3A24.26,24.26,0,0,0,280.87,179.16Z"/><polygon class="cls-1" points="300.33 214.54 295.11 207.38 303.76 195.62 308.8 188.8 314.41 181.2 301.23 181.2 301.02 181.46 296.42 187.77 288.62 198.44 280.69 187.61 276.06 181.28 275.99 181.2 262.68 181.2 268.08 188.65 273.06 195.49 281.88 207.61 276.66 214.72 272.03 221.02 262.68 233.79 275.75 233.79 281.33 226.22 286.4 219.37 288.46 216.58 290.48 219.37 295.47 226.22 301 233.79 314.41 233.79 304.95 220.84 300.33 214.54"/></svg>